# xmcd
#
# Track frame offsets:
#	150
#	13198
#	28326
#	45120
#	60943
#	76565
#	89290
#	102756
#	118263
#	131636
#	143070
#	159712
#	174404
#
# Disc length: 2459 seconds
# Revision: 0
# Processed by: cddbd v1.5.2PL0 Copyright (c) Steve Scherf et al.
# Submitted via: dBpowerAMP V12.0
#
DISCID=9b09990d
DTITLE=Warren H Williams - Urna Marra
DYEAR=2011
DGENRE=Country
TTITLE0=Motor Running
TTITLE1=Have A Great Life
TTITLE2=These Eyes
TTITLE3=Just Called
TTITLE4=This Road
TTITLE5=Had A Love
TTITLE6=Getting Over You
TTITLE7=Look Up Your Memories
TTITLE8=Someone's Always Worse
TTITLE9=Mend Another Broken Heart
TTITLE10=Sleepless Nights
TTITLE11=Stories
TTITLE12=Story of Joseph (Western Aranda)
EXTD=
EXTT0=
EXTT1=
EXTT2=
EXTT3=
EXTT4=
EXTT5=
EXTT6=
EXTT7=
EXTT8=
EXTT9=
EXTT10=
EXTT11=
EXTT12=
PLAYORDER=
